# xmcd
#
# Track frame offsets: 
#        150
#        19202
#        34428
#        47607
#        62671
#        82205
#        95757
#        115225
#        130194
#        155975
#        171077
#        187821
#        202110
#        225142
#        250840
#        269201
#        290154
#        304531
#        323710
#
# Disc length: 4575 seconds
#
# Revision: 0
# Processed by: cddbd v1.5.2PL0 Copyright (c) Steve Scherf et al.
# Submitted via: ExactAudioCopy v1.0b3
#
DISCID=1911dd13
DTITLE=Tom Jans - Loving Arms - Best Of 1971-1982
DYEAR=2013
DGENRE=Country
TTITLE0=Carolina
TTITLE1=Letter To Jesus
TTITLE2=Loving Arms
TTITLE3=Old Time Feeling
TTITLE4=Margarita
TTITLE5=Free And Easy
TTITLE6=Gotta Move
TTITLE7=Once Before I Die
TTITLE8=Struggle In Darkness
TTITLE9=Out Of Hand
TTITLE10=The Eyes Of An Only Child
TTITLE11=Inside Of You
TTITLE12=Why Don't You Love Me
TTITLE13=Distant Cannon Fire
TTITLE14=Back On My Feet Again
TTITLE15=Mothers Eyes
TTITLE16=When The Rebel Comes Home
TTITLE17=Working Hot
TTITLE18=Lost In Your Eyes
EXTD=
EXTT0=
EXTT1=
EXTT2=
EXTT3=
EXTT4=
EXTT5=
EXTT6=
EXTT7=
EXTT8=
EXTT9=
EXTT10=
EXTT11=
EXTT12=
EXTT13=
EXTT14=
EXTT15=
EXTT16=
EXTT17=
EXTT18=
PLAYORDER=
